<svg xmlns="http://www.w3.org/2000/svg" fill="none" viewBox="0 0 24 24" stroke-width="2" stroke="currentColor">
  <path stroke-linecap="round" stroke-linejoin="round" d="M15 12a3 3 0 11-6 0 3 3 0 016 0z" />
  <path stroke-linecap="round" stroke-linejoin="round" d="M2.458 12C3.732 7.943 7.523 5 12 5c4.478 0 8.268 2.943 9.542 7-.4 1.243-1.04 2.372-1.855 3.304-.626.715-1.355 1.32-2.165 1.799-1.005.594-2.098.938-3.176 1.078A9.04 9.04 0 0112 19c-1.226 0-2.433-.203-3.523-.58-.882-.3-1.733-.743-2.516-1.309C4.283 16.387 3.233 14.8 2.458 13z" />
</svg>
